<?xml version="1.0" encoding="UTF-8"?>
<svg width="1024" height="1024" viewBox="0 0 1024 1024" xmlns="http://www.w3.org/2000/svg">
    <path fill="#2F3640" d="M512 0C229.23 0 0 229.23 0 512s229.23 512 512 512 512-229.23 512-512S794.77 0 512 0zM512 960C264.58 960 64 759.42 64 512S264.58 64 512 64s448 200.58 448 448-200.58 448-448 448z"/>
    <path fill="#2F3640" d="M512 128c-211.74 0-384 172.26-384 384s172.26 384 384 384 384-172.26 384-384-172.26-384-384-384zM512 832c-176.45 0-320-143.55-320-320s143.55-320 320-320 320 143.55 320 320-143.55 320-320 320z"/>
    <path fill="#2F3640" d="M512 256c-141.16 0-256 114.84-256 256s114.84 256 256 256 256-114.84 256-256-114.84-256-256-256zM512 704c-105.87 0-192-86.13-192-192s86.13-192 192-192 192 86.13 192 192-86.13 192-192 192z"/>
</svg>
